<mxfile host="Electron" modified="2024-07-30T04:58:25.569Z" agent="Mozilla/5.0 (Windows NT 10.0; Win64; x64) AppleWebKit/537.36 (KHTML, like Gecko) draw.io/21.5.0 Chrome/112.0.5615.204 Electron/24.5.1 Safari/537.36" etag="gx7M9gfl9pX9GtI5ekIi" version="21.5.0" type="device">
  <diagram name="第 1 页" id="N7qp_V9XhSyrVfllVO-_">
    <mxGraphModel dx="1434" dy="886" grid="0" gridSize="10" guides="1" tooltips="1" connect="1" arrows="1" fold="1" page="0" pageScale="1" pageWidth="827" pageHeight="1169" math="0" shadow="0">
      <root>
        <mxCell id="0" />
        <mxCell id="1" parent="0" />
      </root>
    </mxGraphModel>
  </diagram>
</mxfile>
